<svg xmlns="http://www.w3.org/2000/svg" viewBox="0 0 800 600" width="800" height="600">
  <defs>
    <!-- Glow filters for each color -->
    <filter id="glow-cyan" x="-50%" y="-50%" width="200%" height="200%">
      <feGaussianBlur stdDeviation="4" result="blur"/>
      <feFlood flood-color="#00f0ff" flood-opacity="0.7"/>
      <feComposite in2="blur" operator="in" result="glow"/>
      <feMerge><feMergeNode in="glow"/><feMergeNode in="SourceGraphic"/></feMerge>
    </filter>
    <filter id="glow-magenta" x="-50%" y="-50%" width="200%" height="200%">
      <feGaussianBlur stdDeviation="4" result="blur"/>
      <feFlood flood-color="#ff00ff" flood-opacity="0.7"/>
      <feComposite in2="blur" operator="in" result="glow"/>
      <feMerge><feMergeNode in="glow"/><feMergeNode in="SourceGraphic"/></feMerge>
    </filter>
    <filter id="glow-green" x="-50%" y="-50%" width="200%" height="200%">
      <feGaussianBlur stdDeviation="4" result="blur"/>
      <feFlood flood-color="#00ff88" flood-opacity="0.7"/>
      <feComposite in2="blur" operator="in" result="glow"/>
      <feMerge><feMergeNode in="glow"/><feMergeNode in="SourceGraphic"/></feMerge>
    </filter>
    <filter id="glow-gold" x="-50%" y="-50%" width="200%" height="200%">
      <feGaussianBlur stdDeviation="4" result="blur"/>
      <feFlood flood-color="#ffaa00" flood-opacity="0.7"/>
      <feComposite in2="blur" operator="in" result="glow"/>
      <feMerge><feMergeNode in="glow"/><feMergeNode in="SourceGraphic"/></feMerge>
    </filter>
  </defs>

  <!-- Background -->
  <rect width="800" height="600" fill="#060610"/>

  <!-- Substrate texture grid -->
  <g opacity="0.04" stroke="#00f0ff" stroke-width="0.3">
    <line x1="0" y1="0" x2="800" y2="0"/><line x1="0" y1="15" x2="800" y2="15"/><line x1="0" y1="30" x2="800" y2="30"/><line x1="0" y1="45" x2="800" y2="45"/><line x1="0" y1="60" x2="800" y2="60"/><line x1="0" y1="75" x2="800" y2="75"/><line x1="0" y1="90" x2="800" y2="90"/><line x1="0" y1="105" x2="800" y2="105"/><line x1="0" y1="120" x2="800" y2="120"/><line x1="0" y1="135" x2="800" y2="135"/><line x1="0" y1="150" x2="800" y2="150"/><line x1="0" y1="165" x2="800" y2="165"/><line x1="0" y1="180" x2="800" y2="180"/><line x1="0" y1="195" x2="800" y2="195"/><line x1="0" y1="210" x2="800" y2="210"/><line x1="0" y1="225" x2="800" y2="225"/><line x1="0" y1="240" x2="800" y2="240"/><line x1="0" y1="255" x2="800" y2="255"/><line x1="0" y1="270" x2="800" y2="270"/><line x1="0" y1="285" x2="800" y2="285"/><line x1="0" y1="300" x2="800" y2="300"/><line x1="0" y1="315" x2="800" y2="315"/><line x1="0" y1="330" x2="800" y2="330"/><line x1="0" y1="345" x2="800" y2="345"/><line x1="0" y1="360" x2="800" y2="360"/><line x1="0" y1="375" x2="800" y2="375"/><line x1="0" y1="390" x2="800" y2="390"/><line x1="0" y1="405" x2="800" y2="405"/><line x1="0" y1="420" x2="800" y2="420"/><line x1="0" y1="435" x2="800" y2="435"/><line x1="0" y1="450" x2="800" y2="450"/><line x1="0" y1="465" x2="800" y2="465"/><line x1="0" y1="480" x2="800" y2="480"/><line x1="0" y1="495" x2="800" y2="495"/><line x1="0" y1="510" x2="800" y2="510"/><line x1="0" y1="525" x2="800" y2="525"/><line x1="0" y1="540" x2="800" y2="540"/><line x1="0" y1="555" x2="800" y2="555"/><line x1="0" y1="570" x2="800" y2="570"/><line x1="0" y1="585" x2="800" y2="585"/>
    <line x1="0" y1="0" x2="0" y2="600"/><line x1="15" y1="0" x2="15" y2="600"/><line x1="30" y1="0" x2="30" y2="600"/><line x1="45" y1="0" x2="45" y2="600"/><line x1="60" y1="0" x2="60" y2="600"/><line x1="75" y1="0" x2="75" y2="600"/><line x1="90" y1="0" x2="90" y2="600"/><line x1="105" y1="0" x2="105" y2="600"/><line x1="120" y1="0" x2="120" y2="600"/><line x1="135" y1="0" x2="135" y2="600"/><line x1="150" y1="0" x2="150" y2="600"/><line x1="165" y1="0" x2="165" y2="600"/><line x1="180" y1="0" x2="180" y2="600"/><line x1="195" y1="0" x2="195" y2="600"/><line x1="210" y1="0" x2="210" y2="600"/><line x1="225" y1="0" x2="225" y2="600"/><line x1="240" y1="0" x2="240" y2="600"/><line x1="255" y1="0" x2="255" y2="600"/><line x1="270" y1="0" x2="270" y2="600"/><line x1="285" y1="0" x2="285" y2="600"/><line x1="300" y1="0" x2="300" y2="600"/><line x1="315" y1="0" x2="315" y2="600"/><line x1="330" y1="0" x2="330" y2="600"/><line x1="345" y1="0" x2="345" y2="600"/><line x1="360" y1="0" x2="360" y2="600"/><line x1="375" y1="0" x2="375" y2="600"/><line x1="390" y1="0" x2="390" y2="600"/><line x1="405" y1="0" x2="405" y2="600"/><line x1="420" y1="0" x2="420" y2="600"/><line x1="435" y1="0" x2="435" y2="600"/><line x1="450" y1="0" x2="450" y2="600"/><line x1="465" y1="0" x2="465" y2="600"/><line x1="480" y1="0" x2="480" y2="600"/><line x1="495" y1="0" x2="495" y2="600"/><line x1="510" y1="0" x2="510" y2="600"/><line x1="525" y1="0" x2="525" y2="600"/><line x1="540" y1="0" x2="540" y2="600"/><line x1="555" y1="0" x2="555" y2="600"/><line x1="570" y1="0" x2="570" y2="600"/><line x1="585" y1="0" x2="585" y2="600"/><line x1="600" y1="0" x2="600" y2="600"/><line x1="615" y1="0" x2="615" y2="600"/><line x1="630" y1="0" x2="630" y2="600"/><line x1="645" y1="0" x2="645" y2="600"/><line x1="660" y1="0" x2="660" y2="600"/><line x1="675" y1="0" x2="675" y2="600"/><line x1="690" y1="0" x2="690" y2="600"/><line x1="705" y1="0" x2="705" y2="600"/><line x1="720" y1="0" x2="720" y2="600"/><line x1="735" y1="0" x2="735" y2="600"/><line x1="750" y1="0" x2="750" y2="600"/><line x1="765" y1="0" x2="765" y2="600"/><line x1="780" y1="0" x2="780" y2="600"/><line x1="795" y1="0" x2="795" y2="600"/>
  </g>

  <!-- ===== COMPONENTS ===== -->

  <!-- Central CPU -->
  <rect x="340" y="240" width="120" height="120" rx="4" fill="#08081a" stroke="#1a3a4a" stroke-width="1.5"/>
  <rect x="348" y="248" width="104" height="104" rx="2" fill="#060614" stroke="#0d2a35" stroke-width="0.5"/>
  <!-- CPU pins top -->
  <g fill="#1a3a4a"><rect x="355" y="234" width="5" height="8" rx="0.5"/><rect x="367" y="234" width="5" height="8" rx="0.5"/><rect x="379" y="234" width="5" height="8" rx="0.5"/><rect x="391" y="234" width="5" height="8" rx="0.5"/><rect x="403" y="234" width="5" height="8" rx="0.5"/><rect x="415" y="234" width="5" height="8" rx="0.5"/><rect x="427" y="234" width="5" height="8" rx="0.5"/><rect x="439" y="234" width="5" height="8" rx="0.5"/></g>
  <!-- CPU pins bottom -->
  <g fill="#1a3a4a"><rect x="355" y="358" width="5" height="8" rx="0.5"/><rect x="367" y="358" width="5" height="8" rx="0.5"/><rect x="379" y="358" width="5" height="8" rx="0.5"/><rect x="391" y="358" width="5" height="8" rx="0.5"/><rect x="403" y="358" width="5" height="8" rx="0.5"/><rect x="415" y="358" width="5" height="8" rx="0.5"/><rect x="427" y="358" width="5" height="8" rx="0.5"/><rect x="439" y="358" width="5" height="8" rx="0.5"/></g>
  <!-- CPU pins left -->
  <g fill="#1a3a4a"><rect x="333" y="255" width="8" height="5" rx="0.5"/><rect x="333" y="270" width="8" height="5" rx="0.5"/><rect x="333" y="285" width="8" height="5" rx="0.5"/><rect x="333" y="300" width="8" height="5" rx="0.5"/><rect x="333" y="315" width="8" height="5" rx="0.5"/><rect x="333" y="330" width="8" height="5" rx="0.5"/><rect x="333" y="345" width="8" height="5" rx="0.5"/></g>
  <!-- CPU pins right -->
  <g fill="#1a3a4a"><rect x="459" y="255" width="8" height="5" rx="0.5"/><rect x="459" y="270" width="8" height="5" rx="0.5"/><rect x="459" y="285" width="8" height="5" rx="0.5"/><rect x="459" y="300" width="8" height="5" rx="0.5"/><rect x="459" y="315" width="8" height="5" rx="0.5"/><rect x="459" y="330" width="8" height="5" rx="0.5"/><rect x="459" y="345" width="8" height="5" rx="0.5"/></g>
  <text x="400" y="296" text-anchor="middle" font-family="monospace" font-size="10" fill="#1a4a5a" letter-spacing="2">JPL</text>
  <text x="400" y="312" text-anchor="middle" font-family="monospace" font-size="6" fill="#0d2a35">CORE v2.0</text>
  <circle cx="354" cy="254" r="2.5" fill="#1a3a4a"/>

  <!-- Top-left IC -->
  <rect x="80" y="80" width="80" height="50" rx="3" fill="#08081a" stroke="#1a3a4a" stroke-width="1"/>
  <g fill="#1a3a4a"><rect x="88" y="74" width="4" height="8" rx="0.5"/><rect x="100" y="74" width="4" height="8" rx="0.5"/><rect x="112" y="74" width="4" height="8" rx="0.5"/><rect x="124" y="74" width="4" height="8" rx="0.5"/><rect x="136" y="74" width="4" height="8" rx="0.5"/><rect x="148" y="74" width="4" height="8" rx="0.5"/></g>
  <g fill="#1a3a4a"><rect x="88" y="128" width="4" height="8" rx="0.5"/><rect x="100" y="128" width="4" height="8" rx="0.5"/><rect x="112" y="128" width="4" height="8" rx="0.5"/><rect x="124" y="128" width="4" height="8" rx="0.5"/><rect x="136" y="128" width="4" height="8" rx="0.5"/><rect x="148" y="128" width="4" height="8" rx="0.5"/></g>

  <!-- Top-right IC -->
  <rect x="620" y="70" width="80" height="50" rx="3" fill="#08081a" stroke="#1a3a4a" stroke-width="1"/>
  <g fill="#1a3a4a"><rect x="628" y="64" width="4" height="8" rx="0.5"/><rect x="640" y="64" width="4" height="8" rx="0.5"/><rect x="652" y="64" width="4" height="8" rx="0.5"/><rect x="664" y="64" width="4" height="8" rx="0.5"/><rect x="676" y="64" width="4" height="8" rx="0.5"/><rect x="688" y="64" width="4" height="8" rx="0.5"/></g>
  <g fill="#1a3a4a"><rect x="628" y="118" width="4" height="8" rx="0.5"/><rect x="640" y="118" width="4" height="8" rx="0.5"/><rect x="652" y="118" width="4" height="8" rx="0.5"/><rect x="664" y="118" width="4" height="8" rx="0.5"/><rect x="676" y="118" width="4" height="8" rx="0.5"/><rect x="688" y="118" width="4" height="8" rx="0.5"/></g>

  <!-- Bottom-left IC -->
  <rect x="60" y="460" width="80" height="50" rx="3" fill="#08081a" stroke="#1a3a4a" stroke-width="1"/>
  <g fill="#1a3a4a"><rect x="68" y="454" width="4" height="8" rx="0.5"/><rect x="80" y="454" width="4" height="8" rx="0.5"/><rect x="92" y="454" width="4" height="8" rx="0.5"/><rect x="104" y="454" width="4" height="8" rx="0.5"/><rect x="116" y="454" width="4" height="8" rx="0.5"/><rect x="128" y="454" width="4" height="8" rx="0.5"/></g>
  <g fill="#1a3a4a"><rect x="68" y="508" width="4" height="8" rx="0.5"/><rect x="80" y="508" width="4" height="8" rx="0.5"/><rect x="92" y="508" width="4" height="8" rx="0.5"/><rect x="104" y="508" width="4" height="8" rx="0.5"/><rect x="116" y="508" width="4" height="8" rx="0.5"/><rect x="128" y="508" width="4" height="8" rx="0.5"/></g>

  <!-- Bottom-right IC -->
  <rect x="640" y="470" width="80" height="50" rx="3" fill="#08081a" stroke="#1a3a4a" stroke-width="1"/>
  <g fill="#1a3a4a"><rect x="648" y="464" width="4" height="8" rx="0.5"/><rect x="660" y="464" width="4" height="8" rx="0.5"/><rect x="672" y="464" width="4" height="8" rx="0.5"/><rect x="684" y="464" width="4" height="8" rx="0.5"/><rect x="696" y="464" width="4" height="8" rx="0.5"/><rect x="708" y="464" width="4" height="8" rx="0.5"/></g>
  <g fill="#1a3a4a"><rect x="648" y="518" width="4" height="8" rx="0.5"/><rect x="660" y="518" width="4" height="8" rx="0.5"/><rect x="672" y="518" width="4" height="8" rx="0.5"/><rect x="684" y="518" width="4" height="8" rx="0.5"/><rect x="696" y="518" width="4" height="8" rx="0.5"/><rect x="708" y="518" width="4" height="8" rx="0.5"/></g>

  <!-- Middle-left small IC -->
  <rect x="30" y="250" width="55" height="35" rx="2" fill="#08081a" stroke="#1a3a4a" stroke-width="0.8"/>
  <g fill="#1a3a4a"><rect x="37" y="245" width="3" height="6" rx="0.5"/><rect x="47" y="245" width="3" height="6" rx="0.5"/><rect x="57" y="245" width="3" height="6" rx="0.5"/><rect x="67" y="245" width="3" height="6" rx="0.5"/></g>
  <g fill="#1a3a4a"><rect x="37" y="284" width="3" height="6" rx="0.5"/><rect x="47" y="284" width="3" height="6" rx="0.5"/><rect x="57" y="284" width="3" height="6" rx="0.5"/><rect x="67" y="284" width="3" height="6" rx="0.5"/></g>

  <!-- Middle-right small IC -->
  <rect x="710" y="260" width="55" height="35" rx="2" fill="#08081a" stroke="#1a3a4a" stroke-width="0.8"/>
  <g fill="#1a3a4a"><rect x="717" y="255" width="3" height="6" rx="0.5"/><rect x="727" y="255" width="3" height="6" rx="0.5"/><rect x="737" y="255" width="3" height="6" rx="0.5"/><rect x="747" y="255" width="3" height="6" rx="0.5"/></g>
  <g fill="#1a3a4a"><rect x="717" y="294" width="3" height="6" rx="0.5"/><rect x="727" y="294" width="3" height="6" rx="0.5"/><rect x="737" y="294" width="3" height="6" rx="0.5"/><rect x="747" y="294" width="3" height="6" rx="0.5"/></g>

  <!-- Small IC top-center -->
  <rect x="270" y="55" width="55" height="35" rx="2" fill="#08081a" stroke="#1a3a4a" stroke-width="0.8"/>
  <g fill="#1a3a4a"><rect x="277" y="50" width="3" height="6" rx="0.5"/><rect x="287" y="50" width="3" height="6" rx="0.5"/><rect x="297" y="50" width="3" height="6" rx="0.5"/><rect x="307" y="50" width="3" height="6" rx="0.5"/></g>
  <g fill="#1a3a4a"><rect x="277" y="89" width="3" height="6" rx="0.5"/><rect x="287" y="89" width="3" height="6" rx="0.5"/><rect x="297" y="89" width="3" height="6" rx="0.5"/><rect x="307" y="89" width="3" height="6" rx="0.5"/></g>

  <!-- Small IC top-center-right -->
  <rect x="500" y="45" width="55" height="35" rx="2" fill="#08081a" stroke="#1a3a4a" stroke-width="0.8"/>

  <!-- Small IC bottom-center -->
  <rect x="280" y="500" width="55" height="35" rx="2" fill="#08081a" stroke="#1a3a4a" stroke-width="0.8"/>

  <!-- Small IC bottom-center-right -->
  <rect x="480" y="510" width="55" height="35" rx="2" fill="#08081a" stroke="#1a3a4a" stroke-width="0.8"/>

  <!-- Capacitors -->
  <rect x="200" y="185" width="10" height="18" rx="2" fill="#0a0a18" stroke="#1a3a4a" stroke-width="0.6"/>
  <rect x="570" y="175" width="10" height="18" rx="2" fill="#0a0a18" stroke="#1a3a4a" stroke-width="0.6"/>
  <rect x="230" y="395" width="10" height="18" rx="2" fill="#0a0a18" stroke="#1a3a4a" stroke-width="0.6"/>
  <rect x="560" y="405" width="10" height="18" rx="2" fill="#0a0a18" stroke="#1a3a4a" stroke-width="0.6"/>
  <rect x="170" y="340" width="10" height="18" rx="2" fill="#0a0a18" stroke="#1a3a4a" stroke-width="0.6"/>
  <rect x="625" y="350" width="10" height="18" rx="2" fill="#0a0a18" stroke="#1a3a4a" stroke-width="0.6"/>

  <!-- Vias -->
  <g fill="none" stroke="#1a3a4a" stroke-width="0.8">
    <circle cx="85" cy="267" r="4"/><circle cx="85" cy="267" r="1.8" fill="#0d1a20"/>
    <circle cx="738" cy="277" r="4"/><circle cx="738" cy="277" r="1.8" fill="#0d1a20"/>
    <circle cx="297" cy="72" r="3.5"/><circle cx="297" cy="72" r="1.5" fill="#0d1a20"/>
    <circle cx="120" cy="485" r="3.5"/><circle cx="120" cy="485" r="1.5" fill="#0d1a20"/>
    <circle cx="680" cy="495" r="3.5"/><circle cx="680" cy="495" r="1.5" fill="#0d1a20"/>
    <circle cx="205" cy="194" r="3"/><circle cx="205" cy="194" r="1.2" fill="#0d1a20"/>
    <circle cx="575" cy="184" r="3"/><circle cx="575" cy="184" r="1.2" fill="#0d1a20"/>
    <circle cx="400" cy="160" r="3"/><circle cx="400" cy="160" r="1.2" fill="#0d1a20"/>
    <circle cx="400" cy="440" r="3"/><circle cx="400" cy="440" r="1.2" fill="#0d1a20"/>
  </g>

  <!-- ===== ALL TRACES (base copper layer) ===== -->
  <!-- Carefully routed: no trace crosses another. Uses orthogonal routing with 45-degree jogs. -->
  <!-- Horizontal channels are spaced on different Y values; vertical channels on different X values. -->

  <g fill="none" stroke="#0d2a35" stroke-width="2" stroke-linecap="round" stroke-linejoin="round">
    <!-- CPU LEFT (7 pins at y=257,272,287,302,317,332,347 → go left at those exact y-values, no overlap) -->
    <path id="t1" d="M 333,257 H 85"/>
    <path id="t2" d="M 333,272 H 230 V 136"/>
    <path id="t3" d="M 333,287 H 210 V 454"/>
    <path id="t4" d="M 333,302 H 260 V 349 H 175"/>
    <path id="t5" d="M 333,317 H 280 V 500"/>
    <path id="t6" d="M 333,332 H 240 V 395"/>
    <path id="t7" d="M 333,347 H 300 V 460 H 140"/>

    <!-- CPU RIGHT (7 pins at y=257,272,287,302,317,332,347 → go right) -->
    <path id="t8" d="M 467,257 H 710"/>
    <path id="t9" d="M 467,272 H 570 V 126"/>
    <path id="t10" d="M 467,287 H 590 V 464"/>
    <path id="t11" d="M 467,302 H 540 V 359 H 630"/>
    <path id="t12" d="M 467,317 H 520 V 510"/>
    <path id="t13" d="M 467,332 H 560 V 414"/>
    <path id="t14" d="M 467,347 H 500 V 430 H 640"/>

    <!-- CPU TOP (8 pins at x=357,369,381,393,405,417,429,441 → go up) -->
    <path id="t15" d="M 357,234 V 95 H 325"/>
    <path id="t16" d="M 369,234 V 95 H 297"/>
    <path id="t17" d="M 381,234 V 160"/>
    <path id="t18" d="M 393,234 V 120 H 270"/>
    <path id="t19" d="M 405,234 V 80 H 500"/>
    <path id="t20" d="M 417,234 V 62 H 500"/>
    <path id="t21" d="M 429,234 V 45 H 555"/>
    <path id="t22" d="M 441,234 V 30 H 620"/>

    <!-- CPU BOTTOM (8 pins at x=357,369,381,393,405,417,429,441 → go down) -->
    <path id="t23" d="M 357,366 V 413 H 235"/>
    <path id="t24" d="M 369,366 V 500 H 335"/>
    <path id="t25" d="M 381,366 V 440"/>
    <path id="t26" d="M 393,366 V 535 H 280"/>
    <path id="t27" d="M 405,366 V 527 H 480"/>
    <path id="t28" d="M 417,366 V 414 H 565"/>
    <path id="t29" d="M 429,366 V 470 H 648"/>
    <path id="t30" d="M 441,366 V 495 H 720"/>

    <!-- INTER-COMPONENT (chip-to-chip, not through CPU, no intersections) -->
    <!-- Top-left IC → top-center IC -->
    <path id="t31" d="M 160,105 H 270"/>
    <!-- Top-right IC ← top-center-right IC -->
    <path id="t32" d="M 555,62 H 620"/>
    <!-- Left IC → bottom-left IC (along x=48) -->
    <path id="t33" d="M 48,290 V 454"/>
    <!-- Right IC → bottom-right IC (along x=748) -->
    <path id="t34" d="M 748,295 V 464"/>
    <!-- Bottom-left IC → bottom-center IC -->
    <path id="t35" d="M 140,485 H 280"/>
    <!-- Bottom-center-right IC → bottom-right IC -->
    <path id="t36" d="M 535,527 H 640"/>

    <!-- EDGE TRACES (filling blank corners and margins) -->
    <!-- Far left vertical -->
    <path id="t37" d="M 15,0 V 245"/>
    <!-- Far right vertical -->
    <path id="t38" d="M 785,0 V 260"/>
    <!-- Top-left IC up to edge -->
    <path id="t39" d="M 90,74 V 10 H 0"/>
    <!-- Top-right IC up to edge -->
    <path id="t40" d="M 690,64 V 10 H 800"/>
    <!-- Bottom-left IC down to edge -->
    <path id="t41" d="M 80,510 V 570 H 0"/>
    <!-- Bottom-right IC down to edge -->
    <path id="t42" d="M 700,520 V 570 H 800"/>
    <!-- Left mid fill -->
    <path id="t43" d="M 0,200 H 130 V 136"/>
    <!-- Right mid fill -->
    <path id="t44" d="M 800,200 H 670 V 126"/>
    <!-- Left lower fill -->
    <path id="t45" d="M 0,380 H 175 V 358"/>
    <!-- Right lower fill -->
    <path id="t46" d="M 800,380 H 630 V 359"/>
    <!-- Bottom center horizontal -->
    <path id="t47" d="M 0,560 H 190 V 535"/>
    <!-- Bottom center-right horizontal -->
    <path id="t48" d="M 800,560 H 610 V 535"/>
    <!-- Top center down -->
    <path id="t49" d="M 400,0 V 45"/>
    <!-- Far left lower vertical -->
    <path id="t50" d="M 25,310 V 420"/>
    <!-- Far right lower vertical -->
    <path id="t51" d="M 775,310 V 430"/>
    <!-- top-left IC bottom to left-mid IC -->
    <path id="t52" d="M 120,136 V 180 H 68 V 245"/>
    <!-- top-right IC bottom to right-mid IC -->
    <path id="t53" d="M 660,126 V 175 H 728 V 255"/>
    <!-- Left bottom area fill -->
    <path id="t54" d="M 160,510 V 590 H 280"/>
    <!-- Right bottom area fill -->
    <path id="t55" d="M 620,520 V 590 H 535"/>
  </g>

  <!-- ===== ANIMATED ELECTRICAL PULSES ===== -->
  <!-- Each trace gets a glowing copy with animated stroke-dashoffset -->
  <!-- Short bright dash + long gap = electrical pulse effect -->

  <style>
    .p-c { stroke: #00f0ff; fill: none; stroke-linecap: round; stroke-linejoin: round; filter: url(#glow-cyan); }
    .p-m { stroke: #ff00ff; fill: none; stroke-linecap: round; stroke-linejoin: round; filter: url(#glow-magenta); }
    .p-g { stroke: #00ff88; fill: none; stroke-linecap: round; stroke-linejoin: round; filter: url(#glow-green); }
    .p-o { stroke: #ffaa00; fill: none; stroke-linecap: round; stroke-linejoin: round; filter: url(#glow-gold); }
  </style>

  <!-- CPU LEFT pulses -->
  <path d="M 333,257 H 85" class="p-c" stroke-width="2" stroke-dasharray="30 220" opacity="0.9">
    <animate attributeName="stroke-dashoffset" from="250" to="0" dur="2.5s" repeatCount="indefinite"/>
  </path>
  <path d="M 333,272 H 230 V 136" class="p-m" stroke-width="1.8" stroke-dasharray="25 180" opacity="0.85">
    <animate attributeName="stroke-dashoffset" from="0" to="205" dur="3.2s" repeatCount="indefinite"/>
  </path>
  <path d="M 333,287 H 210 V 454" class="p-g" stroke-width="1.8" stroke-dasharray="35 260" opacity="0.8">
    <animate attributeName="stroke-dashoffset" from="295" to="0" dur="4s" repeatCount="indefinite"/>
  </path>
  <path d="M 333,302 H 260 V 349 H 175" class="p-c" stroke-width="1.8" stroke-dasharray="22 170" opacity="0.85">
    <animate attributeName="stroke-dashoffset" from="192" to="0" dur="2.8s" repeatCount="indefinite"/>
  </path>
  <path d="M 333,317 H 280 V 500" class="p-o" stroke-width="1.8" stroke-dasharray="28 210" opacity="0.8">
    <animate attributeName="stroke-dashoffset" from="0" to="238" dur="3.5s" repeatCount="indefinite"/>
  </path>
  <path d="M 333,332 H 240 V 395" class="p-m" stroke-width="1.5" stroke-dasharray="18 140" opacity="0.75">
    <animate attributeName="stroke-dashoffset" from="158" to="0" dur="2.2s" repeatCount="indefinite"/>
  </path>
  <path d="M 333,347 H 300 V 460 H 140" class="p-g" stroke-width="1.8" stroke-dasharray="35 280" opacity="0.8">
    <animate attributeName="stroke-dashoffset" from="315" to="0" dur="4.5s" repeatCount="indefinite"/>
  </path>

  <!-- CPU RIGHT pulses -->
  <path d="M 467,257 H 710" class="p-c" stroke-width="2" stroke-dasharray="30 220" opacity="0.9">
    <animate attributeName="stroke-dashoffset" from="0" to="250" dur="2.7s" repeatCount="indefinite"/>
  </path>
  <path d="M 467,272 H 570 V 126" class="p-m" stroke-width="1.8" stroke-dasharray="25 200" opacity="0.85">
    <animate attributeName="stroke-dashoffset" from="225" to="0" dur="3s" repeatCount="indefinite"/>
  </path>
  <path d="M 467,287 H 590 V 464" class="p-g" stroke-width="1.8" stroke-dasharray="35 250" opacity="0.8">
    <animate attributeName="stroke-dashoffset" from="0" to="285" dur="3.8s" repeatCount="indefinite"/>
  </path>
  <path d="M 467,302 H 540 V 359 H 630" class="p-o" stroke-width="1.8" stroke-dasharray="22 180" opacity="0.85">
    <animate attributeName="stroke-dashoffset" from="0" to="202" dur="2.6s" repeatCount="indefinite"/>
  </path>
  <path d="M 467,317 H 520 V 510" class="p-c" stroke-width="1.8" stroke-dasharray="28 220" opacity="0.8">
    <animate attributeName="stroke-dashoffset" from="248" to="0" dur="3.3s" repeatCount="indefinite"/>
  </path>
  <path d="M 467,332 H 560 V 414" class="p-m" stroke-width="1.5" stroke-dasharray="18 140" opacity="0.75">
    <animate attributeName="stroke-dashoffset" from="0" to="158" dur="2.4s" repeatCount="indefinite"/>
  </path>
  <path d="M 467,347 H 500 V 430 H 640" class="p-g" stroke-width="1.8" stroke-dasharray="30 250" opacity="0.8">
    <animate attributeName="stroke-dashoffset" from="0" to="280" dur="4.2s" repeatCount="indefinite"/>
  </path>

  <!-- CPU TOP pulses -->
  <path d="M 357,234 V 95 H 325" class="p-o" stroke-width="1.8" stroke-dasharray="22 160" opacity="0.85">
    <animate attributeName="stroke-dashoffset" from="182" to="0" dur="2.3s" repeatCount="indefinite"/>
  </path>
  <path d="M 369,234 V 95 H 297" class="p-c" stroke-width="1.8" stroke-dasharray="25 180" opacity="0.8">
    <animate attributeName="stroke-dashoffset" from="0" to="205" dur="2.9s" repeatCount="indefinite"/>
  </path>
  <path d="M 381,234 V 160" class="p-m" stroke-width="1.5" stroke-dasharray="14 80" opacity="0.8">
    <animate attributeName="stroke-dashoffset" from="94" to="0" dur="1.2s" repeatCount="indefinite"/>
  </path>
  <path d="M 393,234 V 120 H 270" class="p-g" stroke-width="1.8" stroke-dasharray="28 200" opacity="0.8">
    <animate attributeName="stroke-dashoffset" from="228" to="0" dur="3.1s" repeatCount="indefinite"/>
  </path>
  <path d="M 405,234 V 80 H 500" class="p-c" stroke-width="1.8" stroke-dasharray="25 180" opacity="0.85">
    <animate attributeName="stroke-dashoffset" from="0" to="205" dur="2.5s" repeatCount="indefinite"/>
  </path>
  <path d="M 417,234 V 62 H 500" class="p-o" stroke-width="1.5" stroke-dasharray="20 160" opacity="0.8">
    <animate attributeName="stroke-dashoffset" from="180" to="0" dur="2.7s" repeatCount="indefinite"/>
  </path>
  <path d="M 429,234 V 45 H 555" class="p-m" stroke-width="1.8" stroke-dasharray="30 220" opacity="0.85">
    <animate attributeName="stroke-dashoffset" from="250" to="0" dur="3.4s" repeatCount="indefinite"/>
  </path>
  <path d="M 441,234 V 30 H 620" class="p-g" stroke-width="1.8" stroke-dasharray="35 260" opacity="0.8">
    <animate attributeName="stroke-dashoffset" from="0" to="295" dur="3.8s" repeatCount="indefinite"/>
  </path>

  <!-- CPU BOTTOM pulses -->
  <path d="M 357,366 V 413 H 235" class="p-g" stroke-width="1.8" stroke-dasharray="25 180" opacity="0.8">
    <animate attributeName="stroke-dashoffset" from="205" to="0" dur="2.6s" repeatCount="indefinite"/>
  </path>
  <path d="M 369,366 V 500 H 335" class="p-c" stroke-width="1.8" stroke-dasharray="28 200" opacity="0.85">
    <animate attributeName="stroke-dashoffset" from="0" to="228" dur="3.2s" repeatCount="indefinite"/>
  </path>
  <path d="M 381,366 V 440" class="p-o" stroke-width="1.5" stroke-dasharray="14 80" opacity="0.8">
    <animate attributeName="stroke-dashoffset" from="94" to="0" dur="1.4s" repeatCount="indefinite"/>
  </path>
  <path d="M 393,366 V 535 H 280" class="p-m" stroke-width="1.8" stroke-dasharray="30 230" opacity="0.85">
    <animate attributeName="stroke-dashoffset" from="0" to="260" dur="3.5s" repeatCount="indefinite"/>
  </path>
  <path d="M 405,366 V 527 H 480" class="p-c" stroke-width="1.8" stroke-dasharray="22 170" opacity="0.8">
    <animate attributeName="stroke-dashoffset" from="192" to="0" dur="2.8s" repeatCount="indefinite"/>
  </path>
  <path d="M 417,366 V 414 H 565" class="p-g" stroke-width="1.8" stroke-dasharray="28 210" opacity="0.8">
    <animate attributeName="stroke-dashoffset" from="0" to="238" dur="3s" repeatCount="indefinite"/>
  </path>
  <path d="M 429,366 V 470 H 648" class="p-o" stroke-width="1.8" stroke-dasharray="30 240" opacity="0.85">
    <animate attributeName="stroke-dashoffset" from="270" to="0" dur="3.6s" repeatCount="indefinite"/>
  </path>
  <path d="M 441,366 V 495 H 720" class="p-m" stroke-width="1.8" stroke-dasharray="35 280" opacity="0.8">
    <animate attributeName="stroke-dashoffset" from="0" to="315" dur="4.2s" repeatCount="indefinite"/>
  </path>

  <!-- INTER-COMPONENT pulses -->
  <path d="M 160,105 H 270" class="p-c" stroke-width="1.5" stroke-dasharray="18 100" opacity="0.8">
    <animate attributeName="stroke-dashoffset" from="118" to="0" dur="1.8s" repeatCount="indefinite"/>
  </path>
  <path d="M 555,62 H 620" class="p-m" stroke-width="1.5" stroke-dasharray="14 60" opacity="0.8">
    <animate attributeName="stroke-dashoffset" from="0" to="74" dur="1.2s" repeatCount="indefinite"/>
  </path>
  <path d="M 48,290 V 454" class="p-g" stroke-width="1.5" stroke-dasharray="25 170" opacity="0.75">
    <animate attributeName="stroke-dashoffset" from="0" to="195" dur="3s" repeatCount="indefinite"/>
  </path>
  <path d="M 748,295 V 464" class="p-o" stroke-width="1.5" stroke-dasharray="25 170" opacity="0.75">
    <animate attributeName="stroke-dashoffset" from="195" to="0" dur="2.8s" repeatCount="indefinite"/>
  </path>
  <path d="M 140,485 H 280" class="p-c" stroke-width="1.5" stroke-dasharray="20 130" opacity="0.8">
    <animate attributeName="stroke-dashoffset" from="0" to="150" dur="2s" repeatCount="indefinite"/>
  </path>
  <path d="M 535,527 H 640" class="p-m" stroke-width="1.5" stroke-dasharray="18 100" opacity="0.8">
    <animate attributeName="stroke-dashoffset" from="118" to="0" dur="1.7s" repeatCount="indefinite"/>
  </path>

  <!-- EDGE/FILL pulses -->
  <path d="M 15,0 V 245" class="p-m" stroke-width="1.5" stroke-dasharray="30 220" opacity="0.6">
    <animate attributeName="stroke-dashoffset" from="250" to="0" dur="3.8s" repeatCount="indefinite"/>
  </path>
  <path d="M 785,0 V 260" class="p-g" stroke-width="1.5" stroke-dasharray="30 230" opacity="0.6">
    <animate attributeName="stroke-dashoffset" from="0" to="260" dur="3.6s" repeatCount="indefinite"/>
  </path>
  <path d="M 90,74 V 10 H 0" class="p-o" stroke-width="1.5" stroke-dasharray="18 100" opacity="0.65">
    <animate attributeName="stroke-dashoffset" from="118" to="0" dur="1.8s" repeatCount="indefinite"/>
  </path>
  <path d="M 690,64 V 10 H 800" class="p-c" stroke-width="1.5" stroke-dasharray="18 110" opacity="0.65">
    <animate attributeName="stroke-dashoffset" from="0" to="128" dur="1.9s" repeatCount="indefinite"/>
  </path>
  <path d="M 80,510 V 570 H 0" class="p-g" stroke-width="1.5" stroke-dasharray="18 120" opacity="0.6">
    <animate attributeName="stroke-dashoffset" from="138" to="0" dur="2.2s" repeatCount="indefinite"/>
  </path>
  <path d="M 700,520 V 570 H 800" class="p-m" stroke-width="1.5" stroke-dasharray="18 120" opacity="0.6">
    <animate attributeName="stroke-dashoffset" from="0" to="138" dur="2.1s" repeatCount="indefinite"/>
  </path>
  <path d="M 0,200 H 130 V 136" class="p-o" stroke-width="1.5" stroke-dasharray="22 160" opacity="0.65">
    <animate attributeName="stroke-dashoffset" from="0" to="182" dur="2.6s" repeatCount="indefinite"/>
  </path>
  <path d="M 800,200 H 670 V 126" class="p-c" stroke-width="1.5" stroke-dasharray="22 160" opacity="0.65">
    <animate attributeName="stroke-dashoffset" from="182" to="0" dur="2.5s" repeatCount="indefinite"/>
  </path>
  <path d="M 0,380 H 175 V 358" class="p-g" stroke-width="1.5" stroke-dasharray="20 150" opacity="0.65">
    <animate attributeName="stroke-dashoffset" from="0" to="170" dur="2.4s" repeatCount="indefinite"/>
  </path>
  <path d="M 800,380 H 630 V 359" class="p-m" stroke-width="1.5" stroke-dasharray="20 150" opacity="0.65">
    <animate attributeName="stroke-dashoffset" from="170" to="0" dur="2.3s" repeatCount="indefinite"/>
  </path>
  <path d="M 0,560 H 190 V 535" class="p-c" stroke-width="1.5" stroke-dasharray="25 180" opacity="0.6">
    <animate attributeName="stroke-dashoffset" from="205" to="0" dur="3s" repeatCount="indefinite"/>
  </path>
  <path d="M 800,560 H 610 V 535" class="p-o" stroke-width="1.5" stroke-dasharray="25 180" opacity="0.6">
    <animate attributeName="stroke-dashoffset" from="0" to="205" dur="2.8s" repeatCount="indefinite"/>
  </path>
  <path d="M 400,0 V 45" class="p-c" stroke-width="1.5" stroke-dasharray="10 40" opacity="0.8">
    <animate attributeName="stroke-dashoffset" from="0" to="50" dur="0.8s" repeatCount="indefinite"/>
  </path>
  <path d="M 25,310 V 420" class="p-o" stroke-width="1.2" stroke-dasharray="18 100" opacity="0.6">
    <animate attributeName="stroke-dashoffset" from="0" to="118" dur="2s" repeatCount="indefinite"/>
  </path>
  <path d="M 775,310 V 430" class="p-g" stroke-width="1.2" stroke-dasharray="18 110" opacity="0.6">
    <animate attributeName="stroke-dashoffset" from="128" to="0" dur="2.2s" repeatCount="indefinite"/>
  </path>
  <path d="M 120,136 V 180 H 68 V 245" class="p-m" stroke-width="1.5" stroke-dasharray="20 140" opacity="0.7">
    <animate attributeName="stroke-dashoffset" from="160" to="0" dur="2.4s" repeatCount="indefinite"/>
  </path>
  <path d="M 660,126 V 175 H 728 V 255" class="p-c" stroke-width="1.5" stroke-dasharray="20 140" opacity="0.7">
    <animate attributeName="stroke-dashoffset" from="0" to="160" dur="2.3s" repeatCount="indefinite"/>
  </path>
  <path d="M 160,510 V 590 H 280" class="p-o" stroke-width="1.5" stroke-dasharray="22 150" opacity="0.6">
    <animate attributeName="stroke-dashoffset" from="172" to="0" dur="2.6s" repeatCount="indefinite"/>
  </path>
  <path d="M 620,520 V 590 H 535" class="p-g" stroke-width="1.5" stroke-dasharray="22 150" opacity="0.6">
    <animate attributeName="stroke-dashoffset" from="0" to="172" dur="2.5s" repeatCount="indefinite"/>
  </path>

  <!-- ===== BLINKING LEDs ===== -->
  <circle cx="354" cy="254" r="2.5" fill="#00ff88">
    <animate attributeName="opacity" values="0.2;1;0.2" dur="1.5s" repeatCount="indefinite"/>
  </circle>
  <circle cx="120" cy="105" r="2" fill="#ff0044">
    <animate attributeName="opacity" values="0.3;1;0.3" dur="2.2s" repeatCount="indefinite"/>
  </circle>
  <circle cx="660" cy="95" r="2" fill="#00f0ff">
    <animate attributeName="opacity" values="0.2;1;0.2" dur="0.8s" repeatCount="indefinite"/>
  </circle>
  <circle cx="100" cy="485" r="2" fill="#ff00ff">
    <animate attributeName="opacity" values="0.3;1;0.3" dur="3s" repeatCount="indefinite"/>
  </circle>
  <circle cx="680" cy="495" r="2" fill="#ffaa00">
    <animate attributeName="opacity" values="0.2;0.9;0.2" dur="1.8s" repeatCount="indefinite"/>
  </circle>
  <circle cx="400" cy="160" r="1.5" fill="#00ff88">
    <animate attributeName="opacity" values="0.1;0.8;0.1" dur="1.2s" repeatCount="indefinite"/>
  </circle>
  <circle cx="400" cy="440" r="1.5" fill="#00f0ff">
    <animate attributeName="opacity" values="0.15;0.9;0.15" dur="2s" repeatCount="indefinite"/>
  </circle>

</svg>